# xmcd CD database file
#
# Track frame offsets:
#	150
#	19610
#	37006
#	52484
#	69760
#	90195
#	113957
#	131766
#	147571
#	168174
#	189840
#
# Disc length: 2788 seconds
#
# Revision: 0
# Processed by: cddbd v1.5.1PL2 Copyright (c) Steve Scherf et al.
# Submitted via: CDex 1.51
#
DISCID=930ae20b
DTITLE=ちひろ - 大漁
DYEAR=2005
DGENRE=R&B
TTITLE0=花津浦
TTITLE1=露
TTITLE2=こころ
TTITLE3=こだまでしょうか
TTITLE4=金平糖の夢
TTITLE5=雪
TTITLE6=さびしいとき
TTITLE7=ねがい
TTITLE8=みんなを好きに
TTITLE9=大漁
TTITLE10=明るい方へ
EXTD=YEAR: 2005
EXTT0=
EXTT1=
EXTT2=
EXTT3=
EXTT4=
EXTT5=
EXTT6=
EXTT7=
EXTT8=
EXTT9=
EXTT10=
PLAYORDER=
